<svg width="14" height="14" viewBox="0 0 14 14" fill="none" xmlns="http://www.w3.org/2000/svg">
<path d="M5.90137 0.59668C5.24338 1.05988 4.70636 1.66812 4.3291 2.36621C3.77625 3.38804 3.5635 4.60238 3.80762 5.82812H3.80859L3.81152 5.85156L3.81445 5.86621C4.08518 7.17356 4.82827 8.26373 5.8291 8.99316L6.03223 9.13379C7.12855 9.85621 8.49943 10.1622 9.88672 9.88477L9.90234 9.88281L9.91797 9.87891C10.9206 9.67104 11.7956 9.18716 12.4785 8.51953C12.8961 8.11162 13.2385 7.63435 13.4971 7.11328C13.4761 8.41518 13.0643 9.65479 12.3506 10.6904C11.4331 12.0215 10.02 13.0141 8.31152 13.3652C6.55328 13.7269 4.81539 13.342 3.42578 12.4277C2.0352 11.5099 0.996488 10.0669 0.634766 8.30957C0.303473 6.69996 0.597606 5.10767 1.35156 3.78418L1.50879 3.52344C2.32762 2.23249 3.59642 1.22974 5.14844 0.770508L5.46289 0.685547L5.46973 0.683594C5.4943 0.677259 5.52156 0.670992 5.56445 0.661133L5.57031 0.660156L5.69043 0.633789L5.69141 0.634766C5.76124 0.620289 5.83143 0.608693 5.90137 0.59668Z" stroke="#2E2E2E"/>
</svg>
