<svg width="14" height="14" viewBox="0 0 14 14" fill="none" xmlns="http://www.w3.org/2000/svg">
<path d="M3.66545 2.74247L2.52 1.59817L1.62273 2.49954L2.76182 3.64384L3.66545 2.74247ZM0 6.36073H1.90909V7.63927H0V6.36073ZM6.36364 0H7.63636V1.88584H6.36364V0ZM11.48 1.59498L12.376 2.49443L11.2369 3.63872L10.3415 2.73863L11.48 1.59498ZM10.3345 11.2575L11.4736 12.4082L12.3709 11.5068L11.2255 10.3626L10.3345 11.2575ZM12.0909 6.36073H14V7.63927H12.0909V6.36073ZM7 3.16438C4.89364 3.16438 3.18182 4.88402 3.18182 7C3.18182 9.11598 4.89364 10.8356 7 10.8356C9.10636 10.8356 10.8182 9.11598 10.8182 7C10.8182 4.88402 9.10636 3.16438 7 3.16438ZM7 9.55708C5.59364 9.55708 4.45455 8.41278 4.45455 7C4.45455 5.58721 5.59364 4.44292 7 4.44292C8.40636 4.44292 9.54545 5.58721 9.54545 7C9.54545 8.41278 8.40636 9.55708 7 9.55708ZM6.36364 12.1142H7.63636V14H6.36364V12.1142ZM1.62273 11.5005L2.52 12.4018L3.65909 11.2511L2.76182 10.3498L1.62273 11.5005Z" fill="white"/>
</svg>
