<svg width="148" height="67" viewBox="0 0 148 67" fill="none" xmlns="http://www.w3.org/2000/svg">
<path d="M37.1758 0.0365982C30.6829 0.737579 23.301 4.61246 17.2139 10.5124C7.93828 19.5084 1.58062 31.834 0.150628 43.5949C0.0153581 44.7438 -0.0426145 46.8272 0.0346823 48.9497C0.111979 51.812 0.2086 52.7272 0.633732 54.3434C2.19899 60.438 6.41167 64.8581 12.2476 66.5521C13.5423 66.9221 14.2573 67 16.6921 67C20.9241 67 23.7648 66.3185 27.9002 64.274C32.7892 61.8789 38.1806 57.3809 43.7074 51.1305C44.9828 49.6896 46.1036 48.4823 46.1809 48.4434C46.2775 48.4045 46.2195 48.7939 46.0456 49.3196C44.8861 53.0777 44.7702 53.6424 44.6736 55.7258C44.5576 58.1988 44.7702 59.4644 45.5432 60.6717C46.4901 62.1321 48.4804 62.6189 50.7221 61.9373C52.8284 61.3142 56.8092 58.5103 59.8044 55.5701L61.7755 53.6424L62.0847 55.0443C63.5533 61.6063 69.138 63.9429 76.2107 60.9443C79.3412 59.6007 83.9017 56.5047 87.5347 53.214L89.3898 51.5394L89.5057 53.915C89.6217 56.7189 90.0468 58.5298 90.8777 59.9317C91.9406 61.7232 93.3319 62.3462 95.9214 62.171C99.8635 61.9373 104.385 59.1723 108.385 54.5381L110.028 52.6493L110.144 55.0443C110.241 56.8552 110.376 57.7509 110.704 58.6077C111.748 61.3727 114.453 62.833 117.391 62.2294C120.54 61.5674 124.367 58.5493 128.251 53.6229C129.062 52.5909 129.855 51.6952 130.009 51.6173C130.299 51.5005 130.28 51.7147 129.758 54.1486C128.695 58.9776 130.415 62.2099 133.99 62.2294C136.811 62.2294 139.671 60.7301 142.609 57.7314C144.754 55.5506 148 51.1305 148 50.4295C148 49.9233 147.42 49.5144 146.957 49.6896C146.783 49.748 145.99 50.7216 145.179 51.8315C141.217 57.3225 136.831 60.5743 134.84 59.5034C133.739 58.8997 133.468 55.979 134.261 52.9803C135.536 48.1319 138.686 41.3362 142.068 36.0594C143.652 33.6059 143.652 33.3528 142.048 33.2554C140.522 33.1581 138.802 34.2874 138.106 35.8646C137.816 36.4877 137.623 36.4488 137.468 35.7478C137.294 34.9884 136.135 33.4307 135.265 32.8076C133.004 31.172 128.888 31.172 125.101 32.7881C119.961 34.9884 115.651 39.6032 112.192 46.5741C110.801 49.3781 109.41 51.2668 107.013 53.6618C105.004 55.6869 102.762 57.342 100.752 58.3545C99.3417 59.0555 98.8973 59.1918 97.6026 59.2502C95.8441 59.3476 95.1291 59.0166 94.588 57.8677C93.815 56.2321 93.7764 54.0123 94.3947 49.6896C94.9165 46.1068 94.7426 46.3989 97.9311 43.5949C101.738 40.2458 105.931 36.0009 108.463 32.9244C114.125 26.0509 118.589 17.5222 120.386 10.0451C120.54 9.46093 120.656 7.92266 120.656 6.63752C120.656 4.10619 120.482 3.54151 119.42 2.39268C118.666 1.57487 117.99 1.28279 116.811 1.28279C111.787 1.28279 105.583 8.56523 98.9939 22.1955C95.1097 30.2568 91.8633 39.2527 90.414 45.99C90.2014 47.0414 89.8729 48.1124 89.7376 48.346C89.583 48.5797 88.6941 49.5338 87.7665 50.4685C80.4813 57.7704 73.0222 61.2364 69.4279 58.9971C67.766 57.9651 66.8771 56.0958 66.7032 53.2529L66.5872 51.5978L68.1911 51.2473C71.5535 50.5269 76.1913 48.5992 79.0513 46.7494C81.2156 45.3474 83.8244 42.5824 84.6747 40.791C85.5249 38.9996 85.7568 38.0065 85.7761 36.1178C85.7761 34.8911 85.6795 34.4822 85.2544 33.5864C84.7906 32.6907 84.5587 32.4571 83.5732 31.9508C82.5297 31.4251 82.2591 31.3667 80.5779 31.3861C74.4908 31.4251 68.0172 36.332 64.3649 43.6339C63.534 45.3279 62.5871 47.8787 62.2006 49.5338C61.6209 52.0262 56.4613 57.011 52.9443 58.4519C51.5337 59.036 49.9877 59.075 49.4467 58.5298C49.0602 58.1403 48.9829 57.5757 49.0602 55.3169C49.1568 51.8315 51.5723 45.0164 55.7463 36.3904C57.4082 32.9828 57.6015 32.3013 57.0797 31.7756C56.6546 31.3667 55.1666 31.172 54.4903 31.464C53.4854 31.8729 52.983 32.6713 50.4322 37.8897C47.3403 44.257 46.2195 45.8147 41.2339 50.8579C32.4027 59.7565 25.0595 63.9624 18.3154 63.9819C14.7017 63.9819 12.035 62.9109 9.63881 60.477C7.4745 58.2961 6.52761 56.1348 5.94789 52.1236C5.65802 50.079 5.83194 44.4128 6.25707 41.6867C7.57112 33.3333 11.1461 24.8826 16.4216 17.717C22.2575 9.77248 28.6731 4.69035 35.1468 2.89895C36.8086 2.4511 39.9198 2.4511 41.1179 2.89895C43.031 3.63887 44.7316 5.56658 45.1953 7.53323C45.5818 9.16885 45.3499 12.7322 44.7122 14.6209C43.0503 19.6836 40.0164 23.5974 36.2482 25.5251C34.9535 26.1872 34.7216 26.5961 35.282 27.2192C35.5526 27.5307 35.8038 27.5891 36.5188 27.5307C37.543 27.4334 39.8039 26.4208 41.0986 25.4862C43.6107 23.6948 46.2968 20.2872 47.5142 17.347C49.2727 13.0632 49.2921 7.98108 47.5722 4.72929C46.4707 2.68475 44.3451 1.01019 42.0068 0.387085C40.944 0.0950089 38.3932 -0.0802383 37.1758 0.0365982ZM117.893 4.02831C118.666 4.94348 118.801 6.46228 118.318 9.28568C117.217 15.7698 113.004 23.9285 107.013 31.2109C102.627 36.5267 96.3851 42.855 96.2499 42.1346C96.1726 41.7062 98.6654 34.2095 100.134 30.471C107.052 12.9464 115.188 0.815468 117.893 4.02831ZM82.2591 34.1317C83.0901 34.7548 83.3027 35.3194 83.1867 36.7214C82.8968 40.7521 79.4571 44.5685 73.5826 47.4114C71.3216 48.5213 67.1669 49.9622 66.9351 49.7285C66.7805 49.5922 67.7273 46.4378 68.4037 44.8411C70.684 39.428 75.1478 34.7742 78.974 33.8006C80.0948 33.528 81.6601 33.6838 82.2591 34.1317ZM132.985 34.0732C134.492 34.6185 135.323 35.9425 135.304 37.8118C135.285 39.3306 134.898 40.5573 133.488 43.3418C130.145 49.9817 123.922 56.9526 119.787 58.6661C114.376 60.9053 113.12 54.2849 117.391 45.8537C120.598 39.5253 124.772 35.1637 128.618 34.0927C129.835 33.7617 132.058 33.7422 132.985 34.0732Z" fill="#9B51E0"/>
<path d="M57.4467 18.7874C55.6302 19.8973 54.7413 22.3897 55.5916 24.0642C57.0795 27.0434 61.3502 25.3299 61.5821 21.6303C61.6787 20.1894 61.3502 19.43 60.4033 18.8263C59.5723 18.3006 58.2583 18.2811 57.4467 18.7874Z" fill="#9B51E0"/>
</svg>
